<svg id="Layer_1" data-name="Layer 1" xmlns="http://www.w3.org/2000/svg" viewBox="0 0 250 250"><defs><style>.cls-1{fill:none;}.cls-1,.cls-2{stroke:#231f20;stroke-linecap:round;stroke-linejoin:round;stroke-width:5px;}.cls-2{fill:#16d616;}</style></defs><path class="cls-1" d="M95.32,120.57a28.67,28.67,0,0,1-.16,3.09,30.28,30.28,0,1,1,.16-3.09Z"/><path class="cls-1" d="M65,150.87h0a32.51,32.51,0,0,1,32.51,32.51v7.9a0,0,0,0,1,0,0h-65a0,0,0,0,1,0,0v-7.9A32.51,32.51,0,0,1,65,150.87Z"/><circle class="cls-1" cx="184.99" cy="120.57" r="30.31"/><path class="cls-1" d="M185,150.87h0a32.51,32.51,0,0,1,32.51,32.51v7.9a0,0,0,0,1,0,0h-65a0,0,0,0,1,0,0v-7.9A32.51,32.51,0,0,1,185,150.87Z"/><circle class="cls-2" cx="125" cy="98.48" r="39.77"/><path class="cls-2" d="M125,138.25h0a42.67,42.67,0,0,1,42.67,42.67v10.37a0,0,0,0,1,0,0H82.33a0,0,0,0,1,0,0V180.92A42.67,42.67,0,0,1,125,138.25Z"/></svg>