<svg id="Layer_1" data-name="Layer 1" xmlns="http://www.w3.org/2000/svg" viewBox="0 0 250 250"><defs><style>.cls-1{fill:none;}.cls-1,.cls-2{stroke:#231f20;stroke-linecap:round;stroke-linejoin:round;stroke-width:5px;}.cls-2{fill:#16d616;}</style></defs><rect class="cls-1" x="47.54" y="80.23" width="135.64" height="111.06" rx="10.79"/><rect class="cls-2" x="137.88" y="65.61" width="28.71" height="86.64" transform="translate(121.62 -75.74) rotate(45)"/><path class="cls-1" d="M128.21,92.23h-65a3.71,3.71,0,0,0-3.71,3.7v79.65a3.71,3.71,0,0,0,3.71,3.71H167.47a3.71,3.71,0,0,0,3.71-3.71V130.72"/><polygon class="cls-1" points="131.75 149.72 111.45 129.42 101.16 160.01 131.75 149.72"/><path class="cls-1" d="M180.79,63.78H197A6.26,6.26,0,0,1,203.24,70V80.79a0,0,0,0,1,0,0H174.53a0,0,0,0,1,0,0V70A6.26,6.26,0,0,1,180.79,63.78Z" transform="translate(106.44 -112.39) rotate(45)"/></svg>