<svg id="Layer_1" data-name="Layer 1" xmlns="http://www.w3.org/2000/svg" viewBox="0 0 250 250"><defs><style>.cls-1{fill:none;}.cls-1,.cls-2{stroke:#231f20;stroke-linecap:round;stroke-linejoin:round;stroke-width:5px;}.cls-2{fill:#16d616;}</style></defs><polyline class="cls-1" points="192.86 192.06 57.14 192.06 57.14 56.34"/><path class="cls-2" d="M187.44,99.67l-41.74,10,11.12,11.12L130.4,147.17,115,131.78a5.18,5.18,0,0,0-7.34,0L69.25,170.2l10.61,10.6,31.48-31.48,15.39,15.39a5.18,5.18,0,0,0,7.34,0l33.36-33.35,10,10Z"/><polyline class="cls-1" points="74.55 138 74.55 102.73 94.19 102.73 94.19 125"/><polyline class="cls-1" points="113.23 114.79 113.23 80.22 132.86 80.22 132.86 121.79"/><polyline class="cls-1" points="151.9 94.92 151.9 63.27 171.53 63.27 171.53 89.57"/></svg>