<svg id="Layer_1" data-name="Layer 1" xmlns="http://www.w3.org/2000/svg" viewBox="0 0 250 250"><defs><style>.cls-1{fill:none;}.cls-1,.cls-2{stroke:#231f20;stroke-linecap:round;stroke-linejoin:round;stroke-width:5px;}.cls-2{fill:#16d616;}</style></defs><path class="cls-1" d="M155.59,74l-1.18-8.16a8.36,8.36,0,0,0-8.27-7.15H70.06a8.36,8.36,0,0,0-8.26,7.15L60.61,74h-15A12.69,12.69,0,0,0,32.92,86.71v91.88a12.69,12.69,0,0,0,12.69,12.7H204.39a12.69,12.69,0,0,0,12.69-12.7V86.71A12.69,12.69,0,0,0,204.39,74Z"/><circle class="cls-1" cx="105.63" cy="132.65" r="45.24"/><path class="cls-2" d="M135.57,98.75A45.21,45.21,0,0,1,134,167.92h83.13V98.75Z"/><path class="cls-2" d="M60.39,132.65a45.11,45.11,0,0,1,15.3-33.9H32.92v69.17H77.31A45.16,45.16,0,0,1,60.39,132.65Z"/><circle class="cls-2" cx="105.63" cy="132.65" r="25.3"/><line class="cls-1" x1="171.75" y1="63.36" x2="197.8" y2="63.36"/></svg>