<svg id="Layer_1" data-name="Layer 1" xmlns="http://www.w3.org/2000/svg" viewBox="0 0 250 250"><defs><style>.cls-1{fill:none;}.cls-1,.cls-2{stroke:#231f20;stroke-linecap:round;stroke-linejoin:round;stroke-width:5px;}.cls-2{fill:#16d616;}</style></defs><path class="cls-1" d="M169.07,102.78a44.07,44.07,0,1,0-72.25,33.87,31,31,0,0,1,11.43,23.8v.89h33.5v-.63a30.5,30.5,0,0,1,11-23.73A44,44,0,0,0,169.07,102.78Z"/><path class="cls-2" d="M108.25,161.34h33.5a0,0,0,0,1,0,0v24a6.06,6.06,0,0,1-6.06,6.06H114.32a6.06,6.06,0,0,1-6.06-6.06v-24A0,0,0,0,1,108.25,161.34Z"/><path class="cls-1" d="M118.22,161.34v-59c0-4.28-2.57-7.75-5.75-7.75h-.67c-3.18,0-5.75,3.47-5.75,7.75h0c0,4.27,2.57,7.74,5.75,7.74h13"/><path class="cls-1" d="M131.78,161.34v-59c0-4.28,2.57-7.75,5.75-7.75h.67c3.18,0,5.75,3.47,5.75,7.75h0c0,4.27-2.57,7.74-5.75,7.74h-13"/><line class="cls-1" x1="102.63" y1="161.34" x2="147.37" y2="161.34"/><line class="cls-1" x1="102.63" y1="176.38" x2="147.37" y2="176.38"/></svg>