<svg id="Layer_1" data-name="Layer 1" xmlns="http://www.w3.org/2000/svg" viewBox="0 0 250 250"><defs><style>.cls-1{fill:#16d616;}.cls-1,.cls-2{stroke:#231f20;stroke-linecap:round;stroke-linejoin:round;stroke-width:5px;}.cls-2{fill:none;}</style></defs><circle class="cls-1" cx="58.15" cy="111.74" r="19.89"/><path class="cls-1" d="M36.81,131.63H79.48a0,0,0,0,1,0,0v5.18a21.33,21.33,0,0,1-21.33,21.33h0a21.33,21.33,0,0,1-21.33-21.33v-5.18A0,0,0,0,1,36.81,131.63Z" transform="translate(116.3 289.77) rotate(-180)"/><circle class="cls-1" cx="191.85" cy="65.27" r="19.89"/><path class="cls-1" d="M170.52,85.16h42.67a0,0,0,0,1,0,0v5.18a21.33,21.33,0,0,1-21.33,21.33h0a21.33,21.33,0,0,1-21.33-21.33V85.16A0,0,0,0,1,170.52,85.16Z" transform="translate(383.7 196.83) rotate(-180)"/><circle class="cls-1" cx="191.85" cy="158.21" r="19.89"/><path class="cls-1" d="M170.52,178.1h42.67a0,0,0,0,1,0,0v5.18a21.33,21.33,0,0,1-21.33,21.33h0a21.33,21.33,0,0,1-21.33-21.33V178.1A0,0,0,0,1,170.52,178.1Z" transform="translate(383.7 382.71) rotate(-180)"/><polyline class="cls-2" points="155.13 90 88.13 125 155.13 160"/></svg>