<svg id="Layer_1" data-name="Layer 1" xmlns="http://www.w3.org/2000/svg" viewBox="0 0 250 250"><defs><style>.cls-1{fill:none;}.cls-1,.cls-2{stroke:#231f20;stroke-linecap:round;stroke-linejoin:round;stroke-width:5px;}.cls-2{fill:#16d616;}</style></defs><path class="cls-1" d="M72.44,191.29h-17a6.08,6.08,0,0,1-6.08-6.07V164.15H78v21.07A5.83,5.83,0,0,1,72.44,191.29Z"/><path class="cls-1" d="M194.55,191.29h-17a5.83,5.83,0,0,1-5.56-6.07V164.15h28.63v21.07A6.08,6.08,0,0,1,194.55,191.29Z"/><path class="cls-1" d="M190.94,99.22l5.22-10.37a3.78,3.78,0,0,1,3.37-2.07h12.76a3.76,3.76,0,0,1,3.77,3.76v4.91a3.77,3.77,0,0,1-3.77,3.77h-9.92"/><path class="cls-1" d="M59.06,99.22,53.84,88.85a3.78,3.78,0,0,0-3.37-2.07H37.71a3.76,3.76,0,0,0-3.77,3.76v4.91a3.77,3.77,0,0,0,3.77,3.77h9.92"/><path class="cls-2" d="M205,158.41l-1.29-39.53a15.63,15.63,0,0,0-4.91-10l-9.34-8.74-16-37.66a6.47,6.47,0,0,0-5.87-3.77H82.45a6.47,6.47,0,0,0-5.87,3.77l-16,37.66-9.34,8.74a15.63,15.63,0,0,0-4.91,10L45,158.41A5.25,5.25,0,0,0,50.37,164H199.63A5.25,5.25,0,0,0,205,158.41ZM74.21,100.9l0-.07L85,73.25a4,4,0,0,1,3.72-2.54h72.54A4,4,0,0,1,165,73.25l10.78,27.59,0,.06a4,4,0,0,1-3.68,5.53H77.89A4,4,0,0,1,74.21,100.9Zm17,41.93a4.58,4.58,0,0,1-4.59,4.59H65a4.58,4.58,0,0,1-4.59-4.59v-11.5a4.6,4.6,0,0,1,5.11-4.57l21.65,2.45a4.59,4.59,0,0,1,4.07,4.57Zm98.39,0a4.58,4.58,0,0,1-4.59,4.59H163.37a4.58,4.58,0,0,1-4.59-4.59v-9.05a4.59,4.59,0,0,1,4.07-4.57l21.65-2.45a4.6,4.6,0,0,1,5.11,4.57Z"/></svg>