<svg id="Layer_1" data-name="Layer 1" xmlns="http://www.w3.org/2000/svg" viewBox="0 0 250 250"><defs><style>.cls-1{fill:#16d616;stroke:#231f20;stroke-linecap:round;stroke-linejoin:round;stroke-width:5px;}</style></defs><path class="cls-1" d="M192.93,125l-18.59-16L180,85.06l-24.47-2L146,60.38,125,73.13,104,60.38,94.51,83,70,85.06,75.66,109,57.07,125l18.59,16L70,164.94l24.47,2,9.5,22.65,21-12.75,21,12.75,9.5-22.65,24.47-2L174.34,141Zm-78.36,23.65L95.78,129.86a8.53,8.53,0,0,1,0-12.06h0a8.53,8.53,0,0,1,12.06,0L118.06,128l24.11-24.11a8.53,8.53,0,0,1,12.06,0h0a8.54,8.54,0,0,1,0,12.06l-32.68,32.69A4.94,4.94,0,0,1,114.57,148.65Z"/></svg>