<svg id="Layer_1" data-name="Layer 1" xmlns="http://www.w3.org/2000/svg" viewBox="0 0 250 250"><defs><style>.cls-1{fill:none;}.cls-1,.cls-2{stroke:#231f20;stroke-linecap:round;stroke-linejoin:round;stroke-width:5px;}.cls-2{fill:#16d616;}</style></defs><path class="cls-1" d="M162.15,95.86v23.65h-16V95.32a21.2,21.2,0,1,0-42.4,0v24.19h-16V95.86a37.15,37.15,0,1,1,74.3,0Z"/><path class="cls-2" d="M167.24,119.51H82.76A6.44,6.44,0,0,0,76.32,126v58.89a6.44,6.44,0,0,0,6.44,6.45h84.48a6.44,6.44,0,0,0,6.44-6.45V126A6.44,6.44,0,0,0,167.24,119.51Zm-33.18,34.84a13.14,13.14,0,0,0-2.54,7.57v6.92a6.52,6.52,0,1,1-13,0v-6.91a13.07,13.07,0,0,0-2.53-7.56,11.11,11.11,0,0,1,10.28-17.48,11.1,11.1,0,0,1,7.83,17.46Z"/></svg>