<svg id="Layer_1" data-name="Layer 1" xmlns="http://www.w3.org/2000/svg" viewBox="0 0 250 250"><defs><style>.cls-1{fill:none;}.cls-1,.cls-2{stroke:#231f20;stroke-linecap:round;stroke-linejoin:round;stroke-width:5px;}.cls-2{fill:#16d616;}</style></defs><rect class="cls-1" x="46.59" y="46.59" width="156.82" height="156.82" rx="31.91"/><path class="cls-2" d="M81,73.7,72.14,83.77a16.12,16.12,0,0,0,.22,21.47c4.9,5.36,10.3,11.06,15.19,16.13,5.26,5.45,12.59,12.64,17.12,17q4.06,4,8.34,7.69c5,4.35,13.21,11.51,19.15,16.37,5.45,4.47,11.57,9.39,17.32,13.83a16.09,16.09,0,0,0,21.41-1.53l9.32-9.62a8.64,8.64,0,0,0-.5-12.22l-18.23-16.8c-10.19-9.4-15.87,9.19-20.92,9.94-2.27.33-6.85-2.09-11.5-5.16a83.32,83.32,0,0,1-20.57-19.11c-3-4-5.41-8-5.27-10.14.34-5.1,18.4-12.28,8.2-21.67L93.2,73.2A8.65,8.65,0,0,0,81,73.7Z"/></svg>