<svg id="Layer_1" data-name="Layer 1" xmlns="http://www.w3.org/2000/svg" viewBox="0 0 250 250"><defs><style>.cls-1{fill:none;}.cls-1,.cls-2{stroke:#000;stroke-linecap:round;stroke-linejoin:round;stroke-width:5px;}.cls-2{fill:#16d616;}</style></defs><ellipse class="cls-1" cx="125.01" cy="177.87" rx="34.23" ry="13.41"/><path class="cls-2" d="M126.59,58.71h-3.13c-22.73,0-38.91,17.15-38.84,40.73,0,18.49,8.51,38.94,14.15,48.15a190.75,190.75,0,0,0,26.25,34,190.54,190.54,0,0,0,26.26-34c5.64-9.21,14.1-29.66,14.15-48.15C165.5,75.86,149.32,58.71,126.59,58.71Zm-1.25,64.35a21.88,21.88,0,1,1,21.88-21.88A21.88,21.88,0,0,1,125.34,123.06Z"/></svg>