<svg id="Layer_1" data-name="Layer 1" xmlns="http://www.w3.org/2000/svg" viewBox="0 0 250 250"><defs><style>.cls-1{fill:#16d616;stroke:#231f20;stroke-linecap:round;stroke-linejoin:round;stroke-width:5px;}</style></defs><path class="cls-1" d="M171.44,125.2v-.4a26.65,26.65,0,0,1,13.17-23.35l2.48-1.44-9.4-16.28-2.48,1.42a26.71,26.71,0,0,1-26.87-.32l-.39-.22a26.55,26.55,0,0,1-13.55-23V58.73H115.59v2.86a26.55,26.55,0,0,1-13.55,23l-.38.22a26.72,26.72,0,0,1-26.88.32l-2.47-1.42L62.91,100l2.47,1.43a26.66,26.66,0,0,1,13.17,23.35,2.21,2.21,0,0,0,0,.42,26.66,26.66,0,0,1-13.17,23.35L62.91,150l9.4,16.28,2.47-1.42a26.72,26.72,0,0,1,26.88.32l.38.22a26.55,26.55,0,0,1,13.55,23v2.86H134.4v-2.85a26.55,26.55,0,0,1,13.55-23l.39-.23a26.73,26.73,0,0,1,26.87-.31l2.48,1.42,9.4-16.28-2.48-1.44A26.65,26.65,0,0,1,171.44,125.2ZM125,153.75A28.75,28.75,0,1,1,153.75,125,28.75,28.75,0,0,1,125,153.75Z"/></svg>