<svg id="Layer_1" data-name="Layer 1" xmlns="http://www.w3.org/2000/svg" viewBox="0 0 250 250"><defs><style>.cls-1{fill:#16d616;}.cls-1,.cls-2{stroke:#231f20;stroke-linecap:round;stroke-linejoin:round;stroke-width:5px;}.cls-2{fill:none;}</style></defs><path class="cls-1" d="M129.51,141.64,191,89.82a8.43,8.43,0,0,0-8.4-7.84H67.39A8.43,8.43,0,0,0,59,89.83l61.5,51.81A7,7,0,0,0,129.51,141.64Z"/><path class="cls-2" d="M191,89.82l-61.5,51.82a7,7,0,0,1-9,0L59,89.83c0,.19,0,.38,0,.58v69.18A8.43,8.43,0,0,0,67.39,168H182.61a8.43,8.43,0,0,0,8.43-8.43V90.41C191,90.21,191,90,191,89.82Z"/></svg>