<svg id="Layer_1" data-name="Layer 1" xmlns="http://www.w3.org/2000/svg" viewBox="0 0 250 250"><defs><style>.cls-1{fill:#16d616;}.cls-1,.cls-2{stroke:#231f20;stroke-linecap:round;stroke-linejoin:round;stroke-width:5px;}.cls-2{fill:none;}</style></defs><path class="cls-1" d="M138.85,105.42a30.59,30.59,0,0,0-12.27-5.67l-6.74,6.73a16.64,16.64,0,0,0-4.61,8.75,16.74,16.74,0,0,1,14.92,28.29l-27.05,27A16.74,16.74,0,1,1,79.43,146.9l20.32-20.32a31,31,0,0,1,4-22.88,31.43,31.43,0,0,0-5.53,4.4L67.69,138.58a30.92,30.92,0,1,0,43.73,43.73l30.48-30.48a30.91,30.91,0,0,0,0-43.73A34.61,34.61,0,0,0,138.85,105.42Z"/><path class="cls-2" d="M182.31,67.69a30.91,30.91,0,0,0-43.73,0L108.1,98.17a30.91,30.91,0,0,0,15.32,52.08l6.73-6.73a16.76,16.76,0,0,0,4.63-8.74,16.75,16.75,0,0,1-14.94-28.3l27.06-27a16.74,16.74,0,0,1,23.67,23.67l-20.31,20.32A30.69,30.69,0,0,1,151,130a31,31,0,0,1-4.66,16.33,31.9,31.9,0,0,0,5.53-4.4l30.48-30.48a30.91,30.91,0,0,0,0-43.73Z"/></svg>