<svg id="Layer_1" data-name="Layer 1" xmlns="http://www.w3.org/2000/svg" viewBox="0 0 250 250"><defs><style>.cls-1{fill:none;}.cls-1,.cls-2{stroke:#231f20;stroke-linecap:round;stroke-linejoin:round;stroke-width:5px;}.cls-2{fill:#16d616;}</style></defs><path class="cls-1" d="M174.66,191.4V175.84H157.55a53.69,53.69,0,0,1-45.77-25.34l-23.16-37a27.94,27.94,0,0,0-23.82-13.2H25.68V74.43H64.8a53.7,53.7,0,0,1,45.76,25.34l23.16,37A28,28,0,0,0,157.55,150h17.11V134.06l49.66,28.66Z"/><path class="cls-2" d="M174.66,116V100.32H157.55a28,28,0,0,0-23.83,13.2l-23.16,37A53.7,53.7,0,0,1,64.8,175.84H25.68V150H64.8a27.94,27.94,0,0,0,23.82-13.2l23.16-37a53.69,53.69,0,0,1,45.77-25.34h17.11V58.6l49.66,28.68Z"/></svg>