<svg id="Layer_1" data-name="Layer 1" xmlns="http://www.w3.org/2000/svg" viewBox="0 0 250 250"><defs><style>.cls-1{fill:none;}.cls-1,.cls-2{stroke:#231f20;stroke-linecap:round;stroke-linejoin:round;stroke-width:5px;}.cls-2{fill:#16d616;}</style></defs><path class="cls-1" d="M47.12,95.45H70.24a0,0,0,0,1,0,0v57.79a0,0,0,0,1,0,0H47.12a5.32,5.32,0,0,1-5.32-5.32V100.77A5.32,5.32,0,0,1,47.12,95.45Z"/><path class="cls-2" d="M70.24,95.45v57.79l56.43,37.3a4.06,4.06,0,0,0,6.29-3.38V62.84a4.06,4.06,0,0,0-6.24-3.42Z"/><path class="cls-1" d="M187.42,76.77a71.12,71.12,0,0,1,0,100.47"/><path class="cls-1" d="M172,92.19a49.29,49.29,0,0,1,0,69.63"/><path class="cls-1" d="M156.58,107.6a27.44,27.44,0,0,1,0,38.8"/></svg>