<svg id="Layer_1" data-name="Layer 1" xmlns="http://www.w3.org/2000/svg" viewBox="0 0 250 250"><defs><style>.cls-1{fill:none;}.cls-1,.cls-2{stroke:#231f20;stroke-linecap:round;stroke-linejoin:round;stroke-width:5px;}.cls-2{fill:#16d616;}</style></defs><path class="cls-1" d="M47.12,95.45H70.24a0,0,0,0,1,0,0v57.79a0,0,0,0,1,0,0H47.12a5.32,5.32,0,0,1-5.32-5.32V100.77A5.32,5.32,0,0,1,47.12,95.45Z"/><path class="cls-2" d="M133,62.84v76.5L81.74,88.12l45-28.7A4.06,4.06,0,0,1,133,62.84Z"/><path class="cls-2" d="M70.24,95.46,133,158.18v29a4.06,4.06,0,0,1-6.29,3.38l-56.43-37.3Z"/><path class="cls-1" d="M187.42,76.77a71.13,71.13,0,0,1,0,100.48"/><path class="cls-1" d="M172,92.19a49.3,49.3,0,0,1,0,69.64"/><path class="cls-1" d="M156.58,107.61a27.44,27.44,0,0,1,0,38.8"/><line class="cls-1" x1="59.09" y1="84.31" x2="144.11" y2="169.33"/><line class="cls-1" x1="132.96" y1="139.34" x2="81.74" y2="88.12"/><line class="cls-1" x1="132.96" y1="158.18" x2="70.24" y2="95.46"/></svg>