<svg id="Layer_1" data-name="Layer 1" xmlns="http://www.w3.org/2000/svg" viewBox="0 0 250 250"><defs><style>.cls-1{fill:none;}.cls-1,.cls-2{stroke:#231f20;stroke-linecap:round;stroke-linejoin:round;stroke-width:5px;}.cls-2{fill:#16d616;}</style></defs><path class="cls-1" d="M192.78,125.36a11.39,11.39,0,0,0,11.4-11.4h0a11.39,11.39,0,0,0-11.4-11.39h-39.9"/><path class="cls-1" d="M179.18,125.36h9.2a11.41,11.41,0,0,1,11.4,11.4h0a11.4,11.4,0,0,1-11.4,11.4h-9.2a11.4,11.4,0,0,1,11.35,12.42A11.64,11.64,0,0,1,178.8,171H168.75a11.41,11.41,0,0,1,11.36,12.42,11.66,11.66,0,0,1-11.74,10.37H129.68A51.64,51.64,0,0,1,92.73,178.2h0V102.57h0c.68,0,1.37,0,2,0,22.49-.78,41.52-16.65,47.63-38.31q.84-3,1.46-6a2.45,2.45,0,0,1,2.79-1.91c22.73,3.75,19.52,28,6.22,46.29"/><path class="cls-2" d="M73.13,97H51.85c-3.33,0-6,3.26-6,7.29v77.36c0,4,2.7,7.29,6,7.29H73.13c3.33,0,6-3.27,6-7.29V104.25C79.16,100.22,76.46,97,73.13,97Z"/><line class="cls-1" x1="193.95" y1="125.36" x2="174.08" y2="125.36"/><line class="cls-1" x1="179.18" y1="148.16" x2="174.08" y2="148.16"/></svg>