<svg id="Layer_1" data-name="Layer 1" xmlns="http://www.w3.org/2000/svg" viewBox="0 0 250 250"><defs><style>.cls-1{fill:#16d616;stroke:#231f20;stroke-linecap:round;stroke-linejoin:round;stroke-width:5px;}</style></defs><path class="cls-1" d="M125,58.71A66.29,66.29,0,1,0,191.29,125,66.29,66.29,0,0,0,125,58.71Zm39.41,56.2L147.18,131.7a2.23,2.23,0,0,0-.64,2l4.06,23.72a2.24,2.24,0,0,1-3.25,2.36l-21.3-11.2a2.35,2.35,0,0,0-2.1,0l-21.3,11.2a2.24,2.24,0,0,1-3.25-2.36l4.06-23.72a2.23,2.23,0,0,0-.64-2L85.59,114.91a2.24,2.24,0,0,1,1.24-3.83l23.82-3.47a2.25,2.25,0,0,0,1.69-1.22L123,84.8a2.24,2.24,0,0,1,4,0l10.65,21.59a2.25,2.25,0,0,0,1.69,1.22l23.82,3.47A2.24,2.24,0,0,1,164.41,114.91Z"/></svg>