<svg id="Layer_1" data-name="Layer 1" xmlns="http://www.w3.org/2000/svg" viewBox="0 0 250 250"><defs><style>.cls-1{fill:#16d616;stroke:#231f20;stroke-linecap:round;stroke-linejoin:round;stroke-width:5px;}</style></defs><path class="cls-1" d="M125,55c-43.43,0-78.63,24-78.63,53.53,0,25.44,26.05,46.71,61,52.17L125,191.29l17.65-30.57c34.92-5.46,61-26.73,61-52.17C203.63,79,168.43,55,125,55ZM82.27,122.1A13.06,13.06,0,1,1,95.33,109,13.06,13.06,0,0,1,82.27,122.1Zm42.73,0A13.06,13.06,0,1,1,138.06,109,13.06,13.06,0,0,1,125,122.1Zm42.73,0A13.06,13.06,0,1,1,180.79,109,13.06,13.06,0,0,1,167.73,122.1Z"/></svg>