<svg id="Layer_1" data-name="Layer 1" xmlns="http://www.w3.org/2000/svg" viewBox="0 0 250 250"><defs><style>.cls-1{fill:none;}.cls-1,.cls-2{stroke:#231f20;stroke-linecap:round;stroke-linejoin:round;stroke-width:5px;}.cls-2{fill:#16d616;}</style></defs><path class="cls-1" d="M59.65,140.06,42.8,126.4,75.19,73.82S78.28,78,87.87,77.9"/><path class="cls-1" d="M186.56,141.87l19.57-15.47L173.74,73.82s-5.85,7.91-26.51,1.7a93.18,93.18,0,0,0-58.65,2,3.28,3.28,0,0,0-1.83,4.38l1.87,4.32a22.1,22.1,0,0,0,21.67,13.3l11.24-.69a30.82,30.82,0,0,1,20.29,6L171.65,127"/><path class="cls-2" d="M198.59,47.6l-15.25,9.88c-2.39,1.55-2.81,5.15-.94,8l36,55.55c1.87,2.9,5.33,4,7.72,2.44l15.25-9.88c2.39-1.54,2.81-5.14.94-8L206.31,50C204.43,47.15,201,46.06,198.59,47.6Z"/><path class="cls-2" d="M51.41,47.6l15.25,9.88c2.39,1.55,2.81,5.15.94,8l-36,55.55c-1.87,2.9-5.33,4-7.72,2.44L8.66,113.63c-2.39-1.54-2.81-5.14-.94-8L43.69,50C45.57,47.15,49,46.06,51.41,47.6Z"/><rect class="cls-1" x="50.1" y="135.58" width="35.26" height="19.89" rx="9.88" transform="translate(-83.06 90.52) rotate(-45)"/><rect class="cls-1" x="62.58" y="145.81" width="46.11" height="19.89" rx="9.88" transform="translate(-85.05 106.17) rotate(-45)"/><rect class="cls-1" x="77.44" y="161.79" width="40.69" height="19.89" rx="9.88" transform="translate(-92.8 119.44) rotate(-45)"/><rect class="cls-1" x="92.69" y="178.73" width="32.55" height="19.89" rx="9.88" transform="translate(-101.5 132.31) rotate(-45)"/><path class="cls-1" d="M133.61,172.57l9.84,8A9.93,9.93,0,0,1,145,194.48h0A9.92,9.92,0,0,1,131,195.91l-8.49-7"/><path class="cls-1" d="M146.05,157.2l16.17,13.07a9.92,9.92,0,0,1,1.51,13.95h0a9.92,9.92,0,0,1-13.95,1.43l-16.17-13.08"/><path class="cls-1" d="M170.92,126.44l12,9.67a9.91,9.91,0,0,1,1.52,13.94h0a9.92,9.92,0,0,1-13.95,1.44l-11.95-9.67"/><path class="cls-1" d="M158.49,141.82l20.38,16.49a9.92,9.92,0,0,1,1.52,13.94h0a9.92,9.92,0,0,1-13.95,1.44L146.05,157.2"/></svg>