<svg id="Layer_1" data-name="Layer 1" xmlns="http://www.w3.org/2000/svg" viewBox="0 0 250 250"><defs><style>.cls-1{fill:none;}.cls-1,.cls-2{stroke:#231f20;stroke-linecap:round;stroke-linejoin:round;stroke-width:5px;}.cls-2{fill:#16d616;}</style></defs><rect class="cls-1" x="84.46" y="129.83" width="81.08" height="61.46"/><rect class="cls-1" x="84.46" y="58.71" width="81.08" height="29.66"/><path class="cls-2" d="M188.51,88.37h-127a8.82,8.82,0,0,0-8.82,8.82v55.62a8.82,8.82,0,0,0,8.82,8.82h23v-31.8h81.08v31.8h23a8.82,8.82,0,0,0,8.82-8.82V97.19A8.82,8.82,0,0,0,188.51,88.37Zm-41.63,27.41a7.46,7.46,0,1,1,7.47-7.46A7.46,7.46,0,0,1,146.88,115.78Zm28.66,0a7.46,7.46,0,1,1,7.46-7.46A7.46,7.46,0,0,1,175.54,115.78Z"/><line class="cls-1" x1="102.22" y1="145.79" x2="147.78" y2="145.79"/><line class="cls-1" x1="102.22" y1="160.56" x2="147.78" y2="160.56"/><line class="cls-1" x1="102.22" y1="175.33" x2="147.78" y2="175.33"/><path class="cls-1" d="M75.91,73.38h8.55a0,0,0,0,1,0,0v15a0,0,0,0,1,0,0h-15a0,0,0,0,1,0,0V79.82A6.43,6.43,0,0,1,75.91,73.38Z"/><path class="cls-1" d="M165.54,73.38h8.55a6.43,6.43,0,0,1,6.43,6.43v8.55a0,0,0,0,1,0,0h-15a0,0,0,0,1,0,0v-15A0,0,0,0,1,165.54,73.38Z"/></svg>